<?xml version="1.0" encoding="UTF-8"?>
<svg xmlns="http://www.w3.org/2000/svg" width="512" height="512" viewBox="0 0 512 512"><g><path d="M136,184a8,8,0,0,0,8-8V56a8,8,0,0,0-16,0V176A8,8,0,0,0,136,184Z"/><path d="M128,440h16a48.054,48.054,0,0,0,48-48V312a48.054,48.054,0,0,0-48-48H128a48.054,48.054,0,0,0-48,48v80A48.054,48.054,0,0,0,128,440ZM96,312a32.036,32.036,0,0,1,32-32h16a32.036,32.036,0,0,1,32,32v80a32.036,32.036,0,0,1-32,32H128a32.036,32.036,0,0,1-32-32Z"/><path d="M56.011,216.42A8,8,0,0,0,63.993,224c.142,0,.284,0,.428-.011a8,8,0,0,0,7.568-8.409l-8-152a8,8,0,1,0-15.978.84Z"/><path d="M207.579,223.989c.144.008.286.011.428.011a8,8,0,0,0,7.982-7.58l8-152a8,8,0,1,0-15.978-.84l-8,152A8,8,0,0,0,207.579,223.989Z"/><path d="M501.78,18.47A8,8,0,0,0,496,16H16a8,8,0,0,0-7.99,8.36L24,376.18c.04,32.38,11,62.33,30.86,84.37C75.46,483.41,104.28,496,136,496s60.54-12.59,81.14-35.45C237,438.51,247.96,408.56,248,376.18l8-175.99,8,175.99c.04,32.38,11,62.33,30.86,84.37C315.46,483.41,344.28,496,376,496s60.54-12.59,81.14-35.45C477,438.51,487.96,408.56,488,376.18L503.99,24.36A8,8,0,0,0,501.78,18.47ZM232.01,375.64c-.01.12-.01.24-.01.36,0,28.48-9.5,54.7-26.75,73.84C187.72,469.29,163.13,480,136,480s-51.72-10.71-69.25-30.16C49.5,430.7,40,404.48,40,376c0-.12,0-.24-.01-.36L24.37,32H247.63Zm240,0c-.01.12-.01.24-.01.36,0,28.48-9.5,54.7-26.75,73.84C427.72,469.29,403.13,480,376,480s-51.72-10.71-69.25-30.16C289.5,430.7,280,404.48,280,376c0-.12,0-.24-.01-.36L264.37,32H487.63Z"/><path d="M376,184a8,8,0,0,0,8-8V56a8,8,0,0,0-16,0V176A8,8,0,0,0,376,184Z"/><path d="M368,440h16a48.054,48.054,0,0,0,48-48V312a48.054,48.054,0,0,0-48-48H368a48.054,48.054,0,0,0-48,48v80A48.054,48.054,0,0,0,368,440ZM336,312a32.036,32.036,0,0,1,32-32h16a32.036,32.036,0,0,1,32,32v80a32.036,32.036,0,0,1-32,32H368a32.036,32.036,0,0,1-32-32Z"/><path d="M296.011,216.42a8,8,0,0,0,7.982,7.58c.142,0,.284,0,.428-.011a8,8,0,0,0,7.568-8.409l-8-152a8,8,0,1,0-15.978.84Z"/><path d="M447.579,223.989c.144.008.286.011.428.011a8,8,0,0,0,7.982-7.58l8-152a8,8,0,1,0-15.978-.84l-8,152A8,8,0,0,0,447.579,223.989Z"/></g></svg>
