<?xml version="1.0" encoding="iso-8859-1"?>
<!-- Generator: Adobe Illustrator 19.0.0, SVG Export Plug-In . SVG Version: 6.00 Build 0)  -->
<svg version="1.1" id="Capa_1" xmlns="http://www.w3.org/2000/svg" xmlns:xlink="http://www.w3.org/1999/xlink" x="0px" y="0px"
	 viewBox="0 0 512 512" style="enable-background:new 0 0 512 512;" xml:space="preserve">
<g>
	<g>
		<path d="M310.752,118.39H128.98c-47.833,0-86.747,38.914-86.747,86.747v46.339c0,47.833,38.914,86.747,86.747,86.747h64.22
			c4.199,0,7.604-3.405,7.604-7.604s-3.404-7.604-7.603-7.604h-64.22c-39.447,0-71.539-32.092-71.539-71.539v-46.339
			c0-39.447,32.092-71.539,71.539-71.539h181.77c4.199,0,7.604-3.405,7.604-7.604C318.356,121.794,314.951,118.39,310.752,118.39z"
			/>
	</g>
</g>
<g>
	<g>
		<path d="M383.02,118.39h-46.922c-4.199,0-7.604,3.405-7.604,7.604s3.405,7.604,7.604,7.604h46.922
			c39.446,0,71.539,32.092,71.539,71.539v46.339c0,39.447-32.093,71.539-71.539,71.539H318.8c-4.199,0-7.604,3.405-7.604,7.604
			s3.405,7.604,7.604,7.604h64.22c47.833,0,86.747-38.914,86.747-86.747v-46.339C469.767,157.305,430.853,118.39,383.02,118.39z"/>
	</g>
</g>
<g>
	<g>
		<path d="M304.722,352.784l-12.008-87.006c-2.517-18.241-18.302-31.997-36.717-31.997c-18.415,0-34.2,13.756-36.717,31.997
			l-12.008,87.006c-1.419,10.287,1.679,20.678,8.501,28.507s16.691,12.319,27.076,12.319h26.294c10.385,0,20.254-4.49,27.076-12.319
			C303.042,373.462,306.142,363.072,304.722,352.784z M284.755,371.299c-3.934,4.515-9.624,7.103-15.61,7.103H242.85
			c-5.988,0-11.678-2.589-15.61-7.103c-3.934-4.514-5.72-10.505-4.901-16.436l12.008-87.006
			c1.484-10.757,10.794-18.869,21.652-18.869s20.167,8.112,21.651,18.869l12.008,87.006
			C290.476,360.795,288.69,366.786,284.755,371.299z"/>
	</g>
</g>
<g>
	<g>
		<path d="M383.029,148.137H128.983c-31.432,0-57.004,25.572-57.004,57.003v0.929c0,4.199,3.405,7.604,7.604,7.604
			s7.604-3.405,7.604-7.604v-0.929c0-23.046,18.749-41.795,41.796-41.795h254.043c23.041,0,41.785,18.745,41.785,41.785v46.342
			c0,23.046-18.749,41.795-41.796,41.795h-40.017c-9.383,0-17.427-7.01-18.712-16.305l-2.107-15.255
			c-4.536-32.878-32.988-57.669-66.182-57.669c-16.118,0-31.7,5.834-43.879,16.431c-12.177,10.614-20.097,25.261-22.303,41.241
			l-2.107,15.253c-1.284,9.295-9.329,16.305-18.712,16.305H128.98c-23.046,0-41.796-18.749-41.796-41.795v-20.056
			c0-4.199-3.405-7.604-7.604-7.604s-7.604,3.405-7.604,7.604v20.056c0,31.432,25.572,57.003,57.004,57.003h40.017
			c16.939,0,31.459-12.653,33.777-29.432l2.107-15.254c1.703-12.342,7.823-23.655,17.226-31.852
			c9.406-8.184,21.441-12.691,33.891-12.691c25.639,0,47.614,19.148,51.117,44.541l2.107,15.256
			c2.32,16.779,16.84,29.432,33.779,29.432h40.017c31.432,0,57.004-25.572,57.004-57.003V205.13
			C440.022,173.704,414.454,148.137,383.029,148.137z"/>
	</g>
</g>
<g>
	<g>
		<path d="M482.978,194.21c-4.199,0-7.604,3.405-7.604,7.604c0,4.199,3.405,7.604,7.604,7.604c7.617,0,13.814,6.197,13.814,13.814
			v15.449c0,7.617-6.197,13.814-13.814,13.814c-4.199,0-7.604,3.405-7.604,7.604s3.405,7.604,7.604,7.604
			c16.003,0,29.022-13.019,29.022-29.022v-15.449C512,207.229,498.981,194.21,482.978,194.21z"/>
	</g>
</g>
<g>
	<g>
		<path d="M29.022,252.494c-7.617,0-13.814-6.197-13.814-13.814v-15.449c0-7.616,6.197-13.813,13.814-13.813
			c4.199,0,7.604-3.405,7.604-7.604c0-4.199-3.405-7.604-7.604-7.604C13.019,194.21,0,207.229,0,223.231v15.449
			c0,16.003,13.019,29.022,29.022,29.022c4.199,0,7.604-3.405,7.604-7.604S33.221,252.494,29.022,252.494z"/>
	</g>
</g>
</svg>
